<?xml version="1.0" encoding="UTF-8" standalone="no"?>
<!-- Created with Inkscape (http://www.inkscape.org/) -->

<svg
   version="1.1"
   id="svg2"
   xml:space="preserve"
   width="628.28003"
   height="71.066666"
   viewBox="0 0 628.28003 71.066666"
   sodipodi:docname="tesla-seeklogo.com.eps"
   xmlns:inkscape="http://www.inkscape.org/namespaces/inkscape"
   xmlns:sodipodi="http://sodipodi.sourceforge.net/DTD/sodipodi-0.dtd"
   xmlns="http://www.w3.org/2000/svg"
   xmlns:svg="http://www.w3.org/2000/svg"><defs
     id="defs6" /><sodipodi:namedview
     id="namedview4"
     pagecolor="#ffffff"
     bordercolor="#666666"
     borderopacity="1.0"
     inkscape:pageshadow="2"
     inkscape:pageopacity="0.0"
     inkscape:pagecheckerboard="0" /><g
     id="g8"
     inkscape:groupmode="layer"
     inkscape:label="ink_ext_XXXXXX"
     transform="matrix(1.3333333,0,0,-1.3333333,0,71.066667)"><g
       id="g10"
       transform="scale(0.1)"><path
         d="m 1173.53,205.332 h 451.36 c 63.14,22.879 109.24,67.336 122.4,119.41 h -696.16 c 12.71,-52.074 59.26,-96.531 122.4,-119.41 M 0,529.02 C 13.6367,476.945 59.5742,433.238 122.133,410.051 h 190.023 l 9.723,-4.203 V 0 H 440.41 v 405.848 l 10.645,4.203 h 189.894 c 62.25,23.187 108.496,66.894 121.824,118.969 v 1.343 H 0 Z M 1173.53,1.05469 h 451.36 c 63.14,23.18751 109.24,67.33981 122.4,119.87131 h -696.16 c 12.71,-52.5315 59.26,-96.6838 122.4,-119.87131 z m 0,412.27331 h 451.36 c 63.14,23.363 109.24,66.899 122.4,119.715 h -696.16 c 12.71,-52.816 59.26,-96.352 122.4,-119.715 z m 2964.68,0 h 451.5 c 63.13,23.363 109.55,66.899 122.39,119.715 h -696.16 c 12.59,-52.816 59.4,-96.352 122.27,-119.715 z M 3240.94,124.223 v 406.14 H 3123.91 V 0 h 534.51 V 4.94922 C 3716.68,29.1914 3758.69,71.3867 3770.97,120.926 Z M 2212.55,413.328 h 415.99 c 63.19,17.817 109.12,64.5 122.14,117.035 H 2095.97 V 205.332 h 541.11 V 120.613 H 2218.1 C 2156.28,97.125 2110.92,56.8672 2098.08,5.10547 L 2095.97,0 h 657.7 v 322.648 h -541.12 z m 1940.8,-85.441 h -116.6 V 0 h 116.6 v 206.082 h 424.52 V 0 h 116.72 v 326.391 h -541.24 v 1.496"
         style="fill:#12222c;fill-opacity:1;fill-rule:nonzero;stroke:none"
         id="path12" /></g></g></svg>
